<svg xmlns="http://www.w3.org/2000/svg" viewBox="0 0 100.08 30.93"><defs><style>.cls-1{fill:#d22027;stroke:#000;stroke-miterlimit:10;stroke-width:0.5px;}</style></defs><title>Recurso 1</title><g id="Capa_2" data-name="Capa 2"><g id="svg27450"><path class="cls-1" d="M5.75,8.58c-1.84.4-2.75.61-4.58,1L.34,6.12C5.83,4.81,8.59,4.25,14.13,3.3l.61,3.55c-1.85.31-2.77.48-4.61.84l4.1,21.2c-1.58.31-2.36.47-3.94.81C8.47,21.25,7.56,17,5.75,8.58Z" transform="translate(-0.04)"/><path class="cls-1" d="M21.45,26.35A6.63,6.63,0,0,1,19.18,22L16.13,3c1.8-.29,2.7-.42,4.49-.67C21.7,10,22.24,13.89,23.31,21.62a2.72,2.72,0,0,0,.79,1.78,2,2,0,0,0,1.61.37A2,2,0,0,0,27.16,23a2.69,2.69,0,0,0,.32-1.92c-.91-7.75-1.36-11.63-2.27-19.38,1.74-.2,2.61-.3,4.35-.47l1.85,19.14a6.73,6.73,0,0,1-1.08,4.83,6,6,0,0,1-4.24,2.14A6,6,0,0,1,21.45,26.35Z" transform="translate(-0.04)"/><path class="cls-1" d="M37.49,13C35.3,8.17,34.15,5.78,31.74,1.05,33.64.88,34.6.81,36.51.69c1.42,3.17,2.11,4.76,3.45,8H40c1-3.31,1.59-5,2.73-8.26C44.48.32,45.33.3,47.05.27c-1.92,5-2.83,7.45-4.52,12.44,2.17,5.08,3.19,7.63,5.11,12.76-1.69,0-2.54,0-4.22.1-1.29-3.47-2-5.2-3.36-8.64H40c-1.07,3.57-1.58,5.36-2.53,9-1.51.1-2.27.16-3.77.29C35.08,20.88,35.84,18.23,37.49,13Z" transform="translate(-0.04)"/><path class="cls-1" d="M49.44.25c4.79,0,7.19,0,12,.29-.07,1.44-.11,2.16-.18,3.6-2.93-.15-4.4-.2-7.33-.26,0,2.81-.08,4.22-.13,7,2.23,0,3.34.08,5.56.18-.06,1.44-.09,2.15-.16,3.59-2.18-.09-3.27-.13-5.46-.17-.08,4.39-.12,6.59-.19,11-1.6,0-2.4,0-4,0C49.49,15.37,49.47,10.33,49.44.25Z" transform="translate(-0.04)"/><path class="cls-1" d="M63.61.67c1.81.11,2.71.18,4.52.33-.72,8.61-1.08,12.92-1.81,21.53,2.68.22,4,.36,6.69.67-.17,1.43-.26,2.15-.43,3.58-4.21-.5-6.32-.69-10.55-1C62.66,15.76,63,10.73,63.61.67Z" transform="translate(-0.04)"/><path class="cls-1" d="M77.73,2c1.8.24,2.7.36,4.5.63-1.51,10-2.26,15-3.76,24.92-1.59-.24-2.38-.35-4-.55C75.79,17,76.44,12,77.73,2Z" transform="translate(-0.04)"/><path class="cls-1" d="M87.27,16c-1-5.19-1.49-7.78-2.68-13,1.9.31,2.84.48,4.73.82.61,3.43.9,5.14,1.41,8.56l.08,0C92.64,9.47,93.57,8,95.49,5.08c1.69.37,2.53.56,4.21,1-3.09,4.33-4.58,6.52-7.45,11,.87,5.45,1.24,8.18,1.85,13.63-1.65-.4-2.48-.58-4.14-.94-.4-3.68-.64-5.52-1.15-9.21h-.08c-1.91,3.2-2.84,4.81-4.65,8.05-1.49-.27-2.24-.39-3.74-.64C83,23.07,84.38,20.69,87.27,16Z" transform="translate(-0.04)"/></g></g></svg>