<svg xmlns="http://www.w3.org/2000/svg" viewBox="0 0 614.35 700.47"><defs><style>.cls-1{isolation:isolate;}.cls-2{fill:#2e3336;}.cls-11,.cls-12,.cls-13,.cls-14,.cls-16,.cls-17,.cls-18,.cls-19,.cls-2,.cls-3,.cls-4{stroke:#000;stroke-miterlimit:10;stroke-width:0.5px;}.cls-3{fill:#fcc624;}.cls-4{fill:#f5f5f5;}.cls-5{fill:#d3d3d3;}.cls-6{fill:#ebebeb;}.cls-7{fill:#5cd1f2;}.cls-8{fill:#cf3034;}.cls-10,.cls-9{mix-blend-mode:soft-light;}.cls-10{fill:#fff;opacity:0.5;}.cls-11{fill:#ffedd2;}.cls-12{fill:#fcc365;}.cls-13{fill:#961b1f;}.cls-14{fill:#761213;}.cls-15{opacity:0.1;}.cls-17{fill:#fffbe2;}.cls-18{fill:#d22027;}.cls-19{fill:#fbb954;}</style></defs><title>TUXFLIX</title><g class="cls-1"><g id="svg27450"><g id="layer1"><g id="g4472"><g id="g3722"><path id="path3216" class="cls-2" d="M234.84,67.45c-6.27,12.39-10.39,27.62-10.75,46.31-1.53,79.26,3.45,67,.38,103.37-1.13,13.38-9.06,33-18.81,52.55-11.17,22.39-24.64,44.73-32.95,57.83-15.7,24.78-34.17,50.54-47.07,76.72-7.36,14.86-13,29.86-15.25,44.89-1.53,10.05-1.71,23-1.37,35.22-9.08,7.89-13.75,21.19-23.09,31.32-6,6.53-17.66,8.64-30.56,11.14-11.06,2.12-22.78,6.43-26.87,13a25.23,25.23,0,0,0-1.25,2.28c-9.32,17.95,2.09,48.75-3.48,71.54-2.35,9.68-6.37,18.8-6.45,27.15a27,27,0,0,0,4,14.07c3.28,5.71,10.49,9.78,20.75,13.33,9.57,3.31,22,6.21,36.44,9.62l5,1.16c6.5,1.55,13,3.1,19.52,4.41,4.26.88,6.73,1.3,8.85,1.69,9.21,1.64,12.71,2.28,37.27,11.87,5.93,2.31,12.5,4.79,19.45,6.9,13.73,4.27,29.25,7.36,43.58,4.77a45.41,45.41,0,0,0,20.21-8.84A76.29,76.29,0,0,0,249,681.47a53.47,53.47,0,0,0,3.15-5.57,43.43,43.43,0,0,0,2.15-5,33.82,33.82,0,0,0,1.41-4.73c5.78-2.89,20.08-7.23,54.13-7.56,51.31-.5,85.49,18,85.49,18l0-.38a56.49,56.49,0,0,0,1.62,6.86,36.88,36.88,0,0,0,4,8.88,41.38,41.38,0,0,0,6.81,8,51.63,51.63,0,0,0,10.9,7.61,62.3,62.3,0,0,0,13.09,5A69.3,69.3,0,0,0,446,714.82a75.62,75.62,0,0,0,14.71-.72,53,53,0,0,0,21-7.52c5.59-3.45,10.16-7.59,14.83-11.83l.14-.12h0c3.07-2.78,6.19-5.61,9.64-8.21,2.31-1.73,4.43-3.35,6.45-4.92,3-2.31,4.67-3.62,6.36-5,5.07-4,10.3-8.12,15.54-12,5.43-4,11.18-8.12,17.44-12.12,4.74-3,10.07-6.5,15.19-9.85,5.28-3.48,10.81-7.12,16-10.69,9.31-6.32,22.16-14.16,27-24.34a19.25,19.25,0,0,0,2.26-10.15c-.76-11.64-14.54-22.14-26.73-32.57-5.93-5.09-11.9-10.13-15-15.3-2.52-4.16-5.57-10.45-6.43-15-2.4-12.67-2.35-22.14-8.35-30.51-5.51-7.68-10.32-9.89-18.81-10.85-1.27-.14-2.46-.32-3.62-.51,5.51-20.3,6.74-33.19,5.73-50.19-2.3-38.84-27.73-83-56.5-127.83-17-28-34.85-54.36-46-72.84-6.11-10.27-9.62-17-12.81-26-3.68-10.32-4.95-35.34-5.38-75.68C420.23,78.29,401.09,49.75,377.93,32s-57.15-17.52-69.4-16.45h0c-10.28.9-53.51,11.27-73.69,52Z" transform="translate(-17.07 -14.84)"/><path id="path3218" class="cls-3" d="M80.81,527.16c-12.18,5.85-40.22,5.73-47,17.39-7.47,12.82-2.64,27-2.57,43.38,0,11.58-.16,24.48-5,38.2-4,11.3-5.35,15.29.38,25.24s30.61,14.74,64.27,22.78,23,2.1,60.65,16.82c23.36,9.13,56.33,20.34,77.69,3.66C237,688.47,250,674.53,250.73,661c.45-7.75-.26-16-2.12-21.05-6.16-16.74-18.48-23.9-30.18-41.41C197,566,174.24,535.15,156,508.08c-12.84-19.15-23.17-23.78-31.9-22.26-26.83,4.73-18.17,29.25-43.33,41.34Z" transform="translate(-17.07 -14.84)"/><path id="path3220" class="cls-3" d="M422.08,499.47c-11.82,8.35-9.26,33.38-10,46.56-1.05,20.17-1.19,42.65-1.89,51.6-1.14,14.81-12.36,48.25-11,64s2.49,25,12.3,34.05,27.12,15.79,48.49,12.7,29.45-16.36,43.3-26.75,28.06-22.7,46.34-34.42,47.7-31,51.93-36.17,7.11-9.72,4-16.56-13.71-17.41-25.36-27C549.9,542.37,563,519,550.33,506.68c-3.87-4.17-6.75-6.47-11.24-7.39-24.25-4.94-30.91,4.59-45.15,3.19-15.35-1.51-9.58,1.87-41.09-2.34-10.85-1.23-23.29-5.53-30.77-.67Z" transform="translate(-17.07 -14.84)"/><path id="path3224" class="cls-4" d="M343.56,122.23c-9.42-.11-18.52,7.2-21.51,17a46.13,46.13,0,0,0-2,18.32h0c2.76.84,5.64,1.93,8.94,3.2a17.85,17.85,0,0,1,.8-15.48c3.86-7.07,11.5-9.33,17.07-5.06s6.93,13.47,3.06,20.53a14.49,14.49,0,0,1-5.43,5.71c3.69,1.27,6.65,2.35,9,3.33,3.1-3.93,7.19-10.19,8.91-15.54,2.81-8.71.65-24.16-11.06-30.11a17.86,17.86,0,0,0-7.86-2Zm-89.67,2.42a14.33,14.33,0,0,0-4.75.86h0c-7.32,2.56-10.11,14.88-7.53,26,1.43,6.15,4,12,7.71,15.64.78-.61,1.57-1.19,2.36-1.73l1.84-1.29c-4.74-2.31-7.86-9.49-7-16.46.86-7.24,5.68-11.52,10.77-9.54s8.51,9.48,7.66,16.73a16.86,16.86,0,0,1-.53,2.69,44.15,44.15,0,0,1,4.14-1.88c.32-.13.62-.26.92-.35a35.68,35.68,0,0,0-.38-11.61c-2.22-10.93-7.17-19.09-15.16-19.1Zm115.27,97.43A72.89,72.89,0,0,0,355,230.74c-5.06,3.95-14.44,12.16-21.62,17.13a88.1,88.1,0,0,1-14.88,8.25c-7.26,3.17-14.36,5.07-19.71,5.21-19.17,1-28.29-3.73-37-12.84-3.66-3.82-6.44-8-11.07-13.11a52.81,52.81,0,0,0-7.77-7.34c-.08,2.51-8.13,56.09-19,79.78s-10.3,15.64-17.58,40.4c-10.11,9.17-21.19,33.82-28.49,55-7.53,24.91-13.23,44.11-13.7,72a73.7,73.7,0,0,1-7.53-24.34c-3.75-30.81,4.41-67.56,28.76-94,1-1.12,1-1.57.55-1.54a3.21,3.21,0,0,0-1.57.86c-30.41,27.14-37.64,77.18-34.51,99.55,2.23,16,6.41,29.78,14.89,41a.22.22,0,0,0,0,.08c.14.17.29.33.43.49a59.43,59.43,0,0,0,7.59,8.09h0c5,5.49,11.17,11.47,23.8,21.07,23.25,17.67,39.54,27,42.74,38.48,4.27,15.3-5.29,25.41-17.22,31.63,8.72,8.72,36.56,26.6,87.32,24.36,44.7-2,72.74-18.88,96.67-48.07.15-6.72.88-18,1.22-30.09.31-11.59.38-23.2,2.15-32.2a32.44,32.44,0,0,1,1.94-5.88c2.92-7.21,10.77-12.11,18.29-12.47,4-.18,8.11-.47,12.07.36.74-5.74,1.31-11.25,1.71-16.61,5.12-1.48,14.13-2.88,24.95-3.24,16.77-.56,36.86,1,47,7.36a35.68,35.68,0,0,0-8-5.13c-11.87-5.68-28.12-7.59-44.69-8.1,4.43-11.75,9-28.61,8.52-41.22-1.27-33.1-17.72-58.59-41.17-76.33a4.61,4.61,0,0,0-1.37-.8c-.22,0-.09.23.72,1,27.15,25.7,36.22,55,34,83.38-.88,11.08-5.69,23.65-11.2,33.8-2.58,0-5.62.13-8.22.18,1.31-34.79-5.53-64-24.92-104.62-1.85-3.52-10.73-18.45-16-22.66-4.14-20.26-4.68-19.26-13-37.81-12.56-28.12-17.11-60.63-20.94-79.73Z" transform="translate(-17.07 -14.84)"/><path class="cls-5" d="M400.67,121.33l-206.82.88a2.34,2.34,0,0,0-2.33,2.35l.1,23.44,0,12.59,0,3.23a14.06,14.06,0,0,0,14.12,14l63.27-.27c11.13-.05,14.34-8.66,16.35-13.55,6.38-15.49,17.39-15.54,24.46-.1,2.23,4.86,6.65,13.45,17.78,13.4l61.52-.26a14.07,14.07,0,0,0,14-14.12v-3.23l-.06-12.59-.1-23.44A2.33,2.33,0,0,0,400.67,121.33Z" transform="translate(-17.07 -14.84)"/><path class="cls-6" d="M400.68,122.35l-206.82.88a2.35,2.35,0,0,0-2.34,2.36l.1,23.43.06,12.6v3.22a14.05,14.05,0,0,0,14.12,14l63.28-.27c11.13,0,14.33-8.66,16.34-13.54,6.38-15.5,17.39-15.54,24.47-.11,2.22,4.87,6.64,13.45,17.78,13.4l61.51-.26a14.06,14.06,0,0,0,14-14.12l0-3.22-.05-12.6-.1-23.43A2.35,2.35,0,0,0,400.68,122.35Z" transform="translate(-17.07 -14.84)"/><rect class="cls-7" x="205.59" y="130.43" width="63.67" height="40.86" rx="7.03" ry="7.03" transform="translate(-17.71 -13.83) rotate(-0.24)"/><rect class="cls-8" x="325.51" y="129.92" width="63.67" height="40.86" rx="7.03" ry="7.03" transform="translate(-17.71 -13.32) rotate(-0.24)"/><path class="cls-9" d="M262.31,170.18l-49.6.21a7,7,0,0,1-7.06-7v1a7,7,0,0,0,7.06,7l49.61-.21a7,7,0,0,0,7-7.06v-1A7,7,0,0,1,262.31,170.18Z" transform="translate(-17.07 -14.84)"/><path class="cls-9" d="M382.22,169.67l-49.6.21a7,7,0,0,1-7.06-7v1a7,7,0,0,0,7.06,7l49.61-.21a7,7,0,0,0,7-7.06v-1A7,7,0,0,1,382.22,169.67Z" transform="translate(-17.07 -14.84)"/><polygon class="cls-10" points="196.29 155.38 224.74 155.26 244.44 116.66 215.99 116.78 196.29 155.38"/><polygon class="cls-10" points="316.19 154.87 344.64 154.75 364.34 116.15 335.89 116.27 316.19 154.87"/><path id="path3222" class="cls-3" d="M241.22,221.15c.27.29.17.8.47,1.11,3.59,3.57,7.74,7.08,11.36,11.18,4.16,4.71,8,10,11.52,13.21,6.51,5.95,12.7,9.12,21.74,10.24,17.46,2.15,30.51-2.69,45.23-12.4,6.93-4.57,16.52-13,22.06-17.16,9.24-7,11.88-6.4,14.62-9.9s4.21-13.16,3.38-17.66c-.67-3.48-1.88-5.78-5.64-8.17-4.19-2.64-11.41-5.42-23.9-9.66l0,0c-6.4-2.34-13-4.69-18.65-6.86-12.69-4.92-21-8.66-32.49-7.73a53.69,53.69,0,0,0-15,3.31v0c-8.45,3.55-16.63,9-23.34,13.72-5.91,4.12-11.95,9.59-15.45,15.21-2.07,3.33-5.36,10.18-2.29,14.13,0,0,7.82,4,15.66,8.65,12.68,7.49,27.16,11.37,40.09,10.65a85.2,85.2,0,0,0,30.05-7.81,169.68,169.68,0,0,0,28.6-18.07c1.55-1.14,4.49-4,6.34-4.91,1.62-.77,6.86-.32,6.62,1.46-.19,1.39-6.34,3.88-8.56,5.52-10.93,8.13-23.11,16.08-31,19.73-8.17,3.77-21.93,8.12-31.24,8.67a58.58,58.58,0,0,1-23.1-2.94c-7.14-2.41-11.37-4.51-19-8.9-2.42-1.4-4.75-2.57-8-4.62Z" transform="translate(-17.07 -14.84)"/><path id="path3232" class="cls-2" d="M520.61,496a24.88,24.88,0,0,0,1.33-4.57c1.6-15.92-29.38-19.51-53.49-18.7-10.94.36-19.47,1.65-24.56,3.15-8.87,2.62-13.24,8.63-14.22,16.15-2,15.21,2.52,47.36,17.62,54.39,15.61,7.27,39.26-3.11,53.22-18.77C510,517.08,516,504.74,520.61,496Z" transform="translate(-17.07 -14.84)"/><path id="path3234" class="cls-2" d="M283.37,175.52c-1-1.53-5.29-.74-7.33,0s-3.6,3-2.76,4.47a2,2,0,0,0,2.07,1c1.09-.24,2.26-1.45,3.73-2.57s3.86-2.28,4.29-2.9Z" transform="translate(-17.07 -14.84)"/><path id="path3236" class="cls-2" d="M296.6,175.56c-.62-.64,6.93-2.19,9.9.15s2.81,4.16,1.91,5.14-9.74-4.45-11.81-5.29Z" transform="translate(-17.07 -14.84)"/></g></g></g><path class="cls-11" d="M552,394.41a14,14,0,0,0,7.84-1.36,13.21,13.21,0,0,0,6.08-18,14,14,0,0,0-16.3-6.77,15.87,15.87,0,0,0-1.78-6.31,17,17,0,0,0-22.53-7.14A16,16,0,0,0,518,376.66a16.26,16.26,0,0,0,5.28,5.92,15.37,15.37,0,0,0-1.83,17,16.49,16.49,0,0,0,21.83,6.92A15.75,15.75,0,0,0,552,394.41Z" transform="translate(-17.07 -14.84)"/><path class="cls-12" d="M543.23,406.48A15.75,15.75,0,0,0,552,394.41a14,14,0,0,0,7.84-1.36,13.41,13.41,0,0,0,7.39-9.77,18.51,18.51,0,0,1-5.87,4.52,19.14,19.14,0,0,1-15.59.58,18.15,18.15,0,0,1-9.68,11.85,19.13,19.13,0,0,1-13.47,1.28A16.53,16.53,0,0,0,543.23,406.48Z" transform="translate(-17.07 -14.84)"/><path class="cls-11" d="M505.19,381.22a16.16,16.16,0,0,0,3.89-.36A15,15,0,0,0,520.79,363a15.41,15.41,0,0,0-16.85-11.56,11.6,11.6,0,0,0-.26-3.83,12.71,12.71,0,0,0-15.2-9.28A12.32,12.32,0,0,0,478.85,353a9.3,9.3,0,0,0-6,10.78,9.61,9.61,0,0,0,10.3,7.23,12,12,0,0,0-2.93,10.9,12.71,12.71,0,0,0,15.2,9.27A12.53,12.53,0,0,0,505.19,381.22Zm-15-14.14h-.08l.08-.1Z" transform="translate(-17.07 -14.84)"/><path class="cls-12" d="M495.44,391.13a12.53,12.53,0,0,0,9.75-9.91,16.16,16.16,0,0,0,3.89-.36A15,15,0,0,0,520.79,363a14.62,14.62,0,0,0-2.1-4.84c.08.28.16.56.22.84a13.66,13.66,0,0,1-10.66,16.31,14.46,14.46,0,0,1-8.67-.77,12.63,12.63,0,0,1-9.89,14.86,14,14,0,0,1-2.37.3l-.76.28A13,13,0,0,0,495.44,391.13Z" transform="translate(-17.07 -14.84)"/><path class="cls-13" d="M627.45,432.91A12.91,12.91,0,0,0,602,430.34a12.9,12.9,0,0,0-25.61,1.71c0,.13,0,.26,0,.39h0c0-.24,0-.37,0-.39,0-6.78-5.65-12.09-12.64-12.1a12.48,12.48,0,0,0-12.69,12.26,1.21,1.21,0,0,0,0,.19h0c0-.13,0-.26,0-.39a12.87,12.87,0,0,0-25.73,0c0,.14,0,.26,0,.39h0v-.19a12.68,12.68,0,0,0-25.34,0c0,.07,0,.13,0,.19h0c0-.12,0-.25,0-.38a12.87,12.87,0,0,0-25.73,0c0,.13,0,.26,0,.39h0a1.34,1.34,0,0,0,0-.2,12.67,12.67,0,0,0-25.33,0v.2h0c0-.13,0-.26,0-.39a12.88,12.88,0,0,0-25.74,0c0,.13,0,.26,0,.39h0a1.34,1.34,0,0,0,0-.2,12.67,12.67,0,0,0-25.33,0c0,.91,13.86,213,16.88,259.08h0l.44,6.58c.09,1.43.14,2.19.14,2.19l21.72,0v-.07l21.72,0v.07l21.31,0v-.07l21.72,0V700l21.71,0v-.07l21.72,0V700l21.72,0V700l21.71,0v.07l21.31,0v-.07H610v-.12h.11l10.32-159.6v0C624.16,483.59,627.45,433.38,627.45,432.91Z" transform="translate(-17.07 -14.84)"/><polygon class="cls-14" points="593.86 685.09 577.34 699.88 594.67 432.86 610.37 419.63 593.86 685.09"/><path class="cls-11" d="M558.75,407.12a15.32,15.32,0,0,0-3.94-8.14,16.44,16.44,0,0,0-22.71-1.2,15.26,15.26,0,0,0-3,19.8,19.51,19.51,0,0,0-6.79,3.84,18.51,18.51,0,0,0-1.5,26.7,19.94,19.94,0,0,0,27.54,1.46,18.85,18.85,0,0,0,5.28-7.54,19.34,19.34,0,0,0,20.23-3.12,17.93,17.93,0,0,0,1.47-25.87A19.22,19.22,0,0,0,558.75,407.12Z" transform="translate(-17.07 -14.84)"/><path class="cls-12" d="M575.38,413.05a19.22,19.22,0,0,0-16.63-5.93,15.32,15.32,0,0,0-3.94-8.14,16.35,16.35,0,0,0-13.55-5.11,21.72,21.72,0,0,1,7,5,20.61,20.61,0,0,1,5.35,16.82,22,22,0,0,1,16.65,7A20.55,20.55,0,0,1,575.81,437,17.9,17.9,0,0,0,575.38,413.05Z" transform="translate(-17.07 -14.84)"/><path class="cls-11" d="M491.9,464.83a16.45,16.45,0,0,0,9.27-.13,15.5,15.5,0,0,0,10.47-19.57,16.11,16.11,0,0,0-17.4-10.76,18.29,18.29,0,0,0-.81-7.57c-3.26-9.95-14.22-15.47-24.48-12.32a18.65,18.65,0,0,0-7.8,31.5,18,18,0,0,0-5.39,19.17c3.15,9.65,13.77,15,23.72,11.94A18.6,18.6,0,0,0,491.9,464.83Z" transform="translate(-17.07 -14.84)"/><path class="cls-12" d="M479.48,477.09a18.6,18.6,0,0,0,12.42-12.26,16.45,16.45,0,0,0,9.27-.13,15.85,15.85,0,0,0,10.38-9.87,21.93,21.93,0,0,1-7.62,4.12,22.28,22.28,0,0,1-18-2.19,21.44,21.44,0,0,1-13.43,11.84,22.23,22.23,0,0,1-15.72-1A19.12,19.12,0,0,0,479.48,477.09Z" transform="translate(-17.07 -14.84)"/><path class="cls-11" d="M436.64,414.75a19.17,19.17,0,0,0,.65-4.94c0-10.87-9.06-19.7-20.27-19.72a20.11,20.11,0,0,0-20.22,17.52,17.11,17.11,0,0,0-5.14-.79,16.18,16.18,0,1,0-.13,32.35,12.72,12.72,0,0,0,25.09-.11,16.82,16.82,0,0,0,13.57,6.8,16.44,16.44,0,0,0,16.72-16.15A16.18,16.18,0,0,0,436.64,414.75Zm-23.09,14.43v.11l-.12-.13Z" transform="translate(-17.07 -14.84)"/><path class="cls-12" d="M446.91,429.71a16.18,16.18,0,0,0-10.27-15,19.17,19.17,0,0,0,.65-4.94c0-10.87-9.06-19.7-20.27-19.72a21,21,0,0,0-7,1.2c.39,0,.78,0,1.17,0,10.22,0,18.49,8.05,18.47,18a17.39,17.39,0,0,1-3.55,10.52,16.83,16.83,0,0,1,16.78,16.59,15.86,15.86,0,0,1-.3,3c.06.34.12.68.16,1A15.81,15.81,0,0,0,446.91,429.71Z" transform="translate(-17.07 -14.84)"/><path class="cls-11" d="M522.7,411a19.16,19.16,0,0,0,.65-4.93c0-10.88-9.06-19.7-20.28-19.72a20.08,20.08,0,0,0-20.21,17.52,17.45,17.45,0,0,0-5.15-.8,16.19,16.19,0,1,0-.12,32.36,12.72,12.72,0,0,0,25.09-.12,16.83,16.83,0,0,0,13.57,6.81A16.45,16.45,0,0,0,533,425.94,16.18,16.18,0,0,0,522.7,411Zm-23.1,14.44v.11l-.12-.14Z" transform="translate(-17.07 -14.84)"/><path class="cls-12" d="M533,425.94a16.18,16.18,0,0,0-10.27-15,19.16,19.16,0,0,0,.65-4.93c0-10.88-9.06-19.7-20.28-19.72a20.61,20.61,0,0,0-7,1.2c.39,0,.79,0,1.18,0,10.22,0,18.49,8.06,18.47,18A17.55,17.55,0,0,1,512.16,416a16.81,16.81,0,0,1,16.77,16.58,15.88,15.88,0,0,1-.29,3c.06.34.12.68.16,1A15.86,15.86,0,0,0,533,425.94Z" transform="translate(-17.07 -14.84)"/><path class="cls-11" d="M474.15,378.06a17.38,17.38,0,0,0-11.24-25.61,18.29,18.29,0,0,0-21.55,10.73,15.46,15.46,0,0,0-4.26-1.81,15,15,0,0,0-18.21,10.32,14.41,14.41,0,0,0,10.58,17.63,11,11,0,0,0,8.37,11.86,11.41,11.41,0,0,0,13.35-6.47,14.79,14.79,0,0,0,10.16,8.85,15,15,0,0,0,18.21-10.32A14.22,14.22,0,0,0,474.15,378.06Zm-23.32,7.43,0,.1-.07-.14Z" transform="translate(-17.07 -14.84)"/><path class="cls-12" d="M479.56,393.24a14.22,14.22,0,0,0-5.41-15.18,17.38,17.38,0,0,0-11.24-25.61,18.78,18.78,0,0,0-6.34-.5c.35.07.69.14,1,.23a15.82,15.82,0,0,1,6.28,27.89,14.76,14.76,0,0,1,10.65,18,14.12,14.12,0,0,1-1,2.55c0,.31-.06.62-.09.92A14.49,14.49,0,0,0,479.56,393.24Z" transform="translate(-17.07 -14.84)"/><path class="cls-11" d="M607.61,415.12A13.41,13.41,0,0,0,601.1,407a14.11,14.11,0,0,0-18.92,5,13.08,13.08,0,0,0,0,13.28,19.19,19.19,0,0,0-8,7.42,18.61,18.61,0,0,0,7.27,25.8,19.84,19.84,0,0,0,26.6-7.05,18.37,18.37,0,0,0,2.24-5.92A16.92,16.92,0,0,0,629,437.88a15.92,15.92,0,0,0-6.23-22.07A17.1,17.1,0,0,0,607.61,415.12Z" transform="translate(-17.07 -14.84)"/><path class="cls-12" d="M607.61,415.12A13.41,13.41,0,0,0,601.1,407a14.24,14.24,0,0,0-14.87.69,14.85,14.85,0,0,1,10.61,1.44A13.93,13.93,0,0,1,604,423a14.84,14.84,0,0,1,14.9-.32,13.78,13.78,0,0,1,4,21.14,16.37,16.37,0,0,0,6.07-5.94,15.92,15.92,0,0,0-6.23-22.07A17.1,17.1,0,0,0,607.61,415.12Z" transform="translate(-17.07 -14.84)"/><path class="cls-11" d="M465,451.92a16.48,16.48,0,0,0,9.28-.12,15.51,15.51,0,0,0,10.47-19.58,16.11,16.11,0,0,0-17.4-10.75,18.32,18.32,0,0,0-.81-7.58A19.63,19.63,0,0,0,442,401.58a18.65,18.65,0,0,0-7.8,31.5,18,18,0,0,0-5.39,19.16c3.15,9.65,13.77,15,23.72,11.94A18.56,18.56,0,0,0,465,451.92Z" transform="translate(-17.07 -14.84)"/><path class="cls-12" d="M452.56,464.18A18.56,18.56,0,0,0,465,451.92a16.48,16.48,0,0,0,9.28-.12,15.84,15.84,0,0,0,10.38-9.88A21.93,21.93,0,0,1,477,446a22.24,22.24,0,0,1-18-2.19,21.44,21.44,0,0,1-13.43,11.84,22.29,22.29,0,0,1-15.72-1A19.13,19.13,0,0,0,452.56,464.18Z" transform="translate(-17.07 -14.84)"/><g class="cls-15"><path class="cls-16" d="M614.53,443.4a12.91,12.91,0,0,0-25.46-2.58,12.9,12.9,0,0,0-25.61,1.72c0,.13,0,.26,0,.39h0c0-.23,0-.37,0-.39,0-6.78-5.65-12.1-12.64-12.11a12.48,12.48,0,0,0-12.69,12.26v.2h0c0-.13,0-.26,0-.39a12.88,12.88,0,0,0-25.74,0c0,.13,0,.26,0,.39h0v-.2a12.67,12.67,0,0,0-25.33,0,1.21,1.21,0,0,0,0,.19h0c0-.13,0-.26,0-.39a12.87,12.87,0,0,0-25.73,0c0,.13,0,.26,0,.39h0c0-.06,0-.13,0-.19a12.68,12.68,0,0,0-25.34,0s0,.08,0,.19h0c0-.13,0-.26,0-.39a12.87,12.87,0,0,0-25.73,0c0,.13,0,.26,0,.39h0a1.21,1.21,0,0,0,0-.19,12.67,12.67,0,0,0-25.33,0c0,.91,13.86,213,16.88,259.07h0l.45,6.59c.09,1.43.14,2.19.14,2.19l21.71,0v-.07l21.72,0v.07l21.31,0v-.07l21.71,0v.07l21.72,0v-.07l21.71,0v.07l21.72,0v-.07l21.71,0v.07l21.31,0v-.08h.07v-.12h.11l10.32-159.59h0C611.24,494.07,614.53,443.87,614.53,443.4Z" transform="translate(-17.07 -14.84)"/></g><path class="cls-17" d="M586.4,447.27c0-.13,0-.26,0-.39a12.87,12.87,0,0,0-25.73,0c0,.13,0,.26,0,.39l-25.36,0c0-.13,0-.26,0-.39a12.87,12.87,0,0,0-25.73,0c0,.14,0,.26,0,.39l-25.35,0c0-.12,0-.25,0-.39a12.88,12.88,0,0,0-25.74,0c0,.13,0,.26,0,.39l-25.35,0c0-.13,0-.26,0-.39a12.88,12.88,0,0,0-25.74,0c0,.13,0,.26,0,.39l-25,0L400,714.54l194.26.3,17.15-267.53Z" transform="translate(-17.07 -14.84)"/><path class="cls-18" d="M407.46,447.19c0-.13,0-.26,0-.39a12.67,12.67,0,0,0-25.33,0c0,1,17.46,267.85,17.46,267.85l21.71,0Z" transform="translate(-17.07 -14.84)"/><path class="cls-18" d="M458.53,447.27c0-.13,0-.26,0-.39a12.67,12.67,0,0,0-25.33,0c0,.89,9.81,267.84,9.81,267.84l21.32,0Z" transform="translate(-17.07 -14.84)"/><path class="cls-18" d="M497,434.66a12.48,12.48,0,0,0-12.68,12.26c0,.13,0,.26,0,.39l1.76,267.43,21.71,0s1.85-267.06,1.85-267.82A12.48,12.48,0,0,0,497,434.66Z" transform="translate(-17.07 -14.84)"/><path class="cls-18" d="M548,434.74A12.49,12.49,0,0,0,535.34,447c0,.13,0,.26,0,.39l-5.87,267.42,21.71,0s9.49-267.13,9.49-268C560.69,440.06,555,434.75,548,434.74Z" transform="translate(-17.07 -14.84)"/><path class="cls-18" d="M611.74,447.7a12.88,12.88,0,0,0-25.73-.23L572.9,714.88l21.32,0S611.74,448.79,611.74,447.7Z" transform="translate(-17.07 -14.84)"/><g class="cls-15"><ellipse class="cls-16" cx="497.14" cy="578.32" rx="55.94" ry="80.23" transform="translate(-98.97 1059.78) rotate(-89.92)"/></g><path class="cls-19" d="M576.9,574.93c0,30.9-36,55.89-80.32,55.82s-80.19-25.17-80.14-56.07,36-55.88,80.32-55.82S577,544,576.9,574.93Z" transform="translate(-17.07 -14.84)"/><g class="cls-15"><path class="cls-16" d="M604.73,555.12S559.21,682.44,399,705.84l.58,8.58,194.83.3Z" transform="translate(-17.07 -14.84)"/></g><path class="cls-11" d="M578.48,409.52a13.26,13.26,0,0,0,3.86,6.78,14.18,14.18,0,0,0,19.61-.22,13.11,13.11,0,0,0,1.37-17.19,16.8,16.8,0,0,0,5.61-3.68,16,16,0,0,0-.27-23,17.19,17.19,0,0,0-23.78.26,16.2,16.2,0,0,0-4.1,6.78,16.65,16.65,0,0,0-17.22,3.8,15.46,15.46,0,0,0,.26,22.34A16.64,16.64,0,0,0,578.48,409.52Z" transform="translate(-17.07 -14.84)"/><path class="cls-12" d="M563.82,405.34a16.64,16.64,0,0,0,14.66,4.18,13.26,13.26,0,0,0,3.86,6.78,14.14,14.14,0,0,0,12,3.65A18.65,18.65,0,0,1,588,416a17.8,17.8,0,0,1-5.6-14.17,19,19,0,0,1-14.74-5.09,17.81,17.81,0,0,1-5.6-12A15.44,15.44,0,0,0,563.82,405.34Z" transform="translate(-17.07 -14.84)"/><path class="cls-11" d="M555.22,348.27a11.68,11.68,0,0,0,3.84,5.7,12.43,12.43,0,0,0,17.15-1.42,11.52,11.52,0,0,0,.06-15.14,14.6,14.6,0,0,0,4.67-3.57,14,14,0,0,0-1.77-20.17,15.1,15.1,0,0,0-20.81,1.72,14.12,14.12,0,0,0-3.13,6.19A14.58,14.58,0,0,0,540.4,326a13.56,13.56,0,0,0,1.72,19.54A14.59,14.59,0,0,0,555.22,348.27Z" transform="translate(-17.07 -14.84)"/><path class="cls-12" d="M542.12,345.53a14.59,14.59,0,0,0,13.1,2.74,11.68,11.68,0,0,0,3.84,5.7,12.44,12.44,0,0,0,10.71,2.45,16.73,16.73,0,0,1-5.8-3.06,15.71,15.71,0,0,1-5.84-12.06,16.77,16.77,0,0,1-13.24-3.54,15.73,15.73,0,0,1-5.71-10.15A13.57,13.57,0,0,0,542.12,345.53Z" transform="translate(-17.07 -14.84)"/><path class="cls-11" d="M427,344.07a16.18,16.18,0,0,0,3.89-.37,15,15,0,0,0,11.71-17.9,15.44,15.44,0,0,0-16.85-11.56,11.87,11.87,0,0,0-.26-3.83,12.72,12.72,0,0,0-15.21-9.27,12.32,12.32,0,0,0-9.62,14.66,9.29,9.29,0,0,0-6,10.78,9.59,9.59,0,0,0,10.29,7.22A12,12,0,0,0,402,344.7,12.73,12.73,0,0,0,417.22,354,12.54,12.54,0,0,0,427,344.07Zm-15-14.15-.08,0a.76.76,0,0,1,.08-.11Z" transform="translate(-17.07 -14.84)"/><path class="cls-12" d="M417.22,354a12.54,12.54,0,0,0,9.75-9.91,16.18,16.18,0,0,0,3.89-.37,15,15,0,0,0,11.71-17.9,14.68,14.68,0,0,0-2.11-4.83,7.39,7.39,0,0,1,.23.84A13.64,13.64,0,0,1,430,338.11a14.46,14.46,0,0,1-8.67-.77,12.62,12.62,0,0,1-9.9,14.86,13.72,13.72,0,0,1-2.37.3l-.75.29A13.12,13.12,0,0,0,417.22,354Z" transform="translate(-17.07 -14.84)"/><path class="cls-18" d="M450.9,567.87c-1.83.39-2.74.6-4.57,1-.33-1.41-.5-2.11-.84-3.51,5.49-1.31,8.25-1.87,13.8-2.81l.6,3.54c-1.84.32-2.76.49-4.6.84l4.1,21.21c-1.58.3-2.37.46-3.94.8Z" transform="translate(-17.07 -14.84)"/><path class="cls-18" d="M466.61,585.64a6.64,6.64,0,0,1-2.27-4.4l-3-19c1.79-.28,2.69-.42,4.49-.67,1.08,7.73,1.61,11.6,2.69,19.33a2.7,2.7,0,0,0,.79,1.78,2.37,2.37,0,0,0,3.06-.39,2.73,2.73,0,0,0,.32-1.93c-.91-7.75-1.36-11.62-2.27-19.38,1.74-.2,2.61-.29,4.35-.46.74,7.65,1.1,11.48,1.84,19.14a6.65,6.65,0,0,1-1.08,4.83,7.11,7.11,0,0,1-8.87,1.14Z" transform="translate(-17.07 -14.84)"/><path class="cls-18" d="M482.64,572.25c-2.19-4.8-3.34-7.18-5.75-11.92,1.91-.16,2.86-.24,4.77-.36,1.43,3.17,2.12,4.76,3.45,8h.08c1-3.31,1.59-5,2.73-8.26,1.71,0,2.57-.08,4.28-.1-1.92,5-2.82,7.44-4.51,12.43,2.16,5.08,3.18,7.63,5.1,12.76-1.69,0-2.53,0-4.22.11-1.29-3.47-2-5.2-3.35-8.65h-.08c-1.06,3.58-1.57,5.37-2.52,8.95-1.52.11-2.27.16-3.78.3C480.23,580.16,481,577.52,482.64,572.25Z" transform="translate(-17.07 -14.84)"/><path class="cls-18" d="M494.59,559.54c4.8,0,7.2,0,12,.29-.08,1.44-.11,2.16-.19,3.6-2.93-.16-4.39-.21-7.33-.26-.05,2.81-.07,4.21-.12,7,2.22,0,3.34.07,5.56.17-.07,1.44-.1,2.16-.16,3.6-2.19-.1-3.28-.13-5.46-.17l-.2,11c-1.6,0-2.4,0-4,0C494.65,574.66,494.63,569.62,494.59,559.54Z" transform="translate(-17.07 -14.84)"/><path class="cls-18" d="M508.76,560c1.81.12,2.72.18,4.52.34l-1.8,21.52c2.68.23,4,.36,6.68.68-.17,1.43-.25,2.14-.42,3.57-4.21-.5-6.33-.69-10.55-.95C507.82,575.05,508.13,570,508.76,560Z" transform="translate(-17.07 -14.84)"/><path class="cls-18" d="M522.88,561.31c1.81.23,2.71.36,4.5.63l-3.75,24.92c-1.59-.24-2.39-.35-4-.56C521,576.3,521.59,571.3,522.88,561.31Z" transform="translate(-17.07 -14.84)"/><path class="cls-18" d="M532.43,575.27c-1-5.19-1.49-7.78-2.68-13,1.89.31,2.84.47,4.73.82.61,3.42.89,5.13,1.41,8.56H536c1.82-3,2.76-4.42,4.68-7.33,1.68.36,2.52.55,4.2,1-3.09,4.33-4.58,6.52-7.45,10.94.87,5.46,1.24,8.18,1.86,13.63-1.65-.39-2.48-.58-4.14-.94-.41-3.68-.64-5.52-1.16-9.2l-.07,0c-1.91,3.2-2.84,4.82-4.65,8.06-1.49-.27-2.24-.4-3.74-.64C528.15,582.35,529.53,580,532.43,575.27Z" transform="translate(-17.07 -14.84)"/></g></g></svg>