<svg xmlns="http://www.w3.org/2000/svg" viewBox="0 0 1805.17 700.47"><defs><style>.cls-1{isolation:isolate;}.cls-2{fill:#2e3336;}.cls-11,.cls-12,.cls-13,.cls-14,.cls-16,.cls-17,.cls-18,.cls-19,.cls-2,.cls-20,.cls-3,.cls-4{stroke:#000;stroke-miterlimit:10;}.cls-11,.cls-12,.cls-13,.cls-14,.cls-16,.cls-17,.cls-18,.cls-19,.cls-2,.cls-3,.cls-4{stroke-width:0.5px;}.cls-3{fill:#fcc624;}.cls-4{fill:#f5f5f5;}.cls-5{fill:#d3d3d3;}.cls-6{fill:#ebebeb;}.cls-7{fill:#5cd1f2;}.cls-8{fill:#cf3034;}.cls-10,.cls-9{mix-blend-mode:soft-light;}.cls-10{fill:#fff;opacity:0.5;}.cls-11{fill:#ffedd2;}.cls-12{fill:#fcc365;}.cls-13{fill:#961b1f;}.cls-14{fill:#761213;}.cls-15{opacity:0.1;}.cls-17{fill:#fffbe2;}.cls-18,.cls-20{fill:#d22027;}.cls-19{fill:#fbb954;}.cls-20{stroke-width:3px;}</style></defs><title>logo+text</title><g class="cls-1"><g id="svg27450"><g id="layer1"><g id="g4472"><g id="g3722"><path id="path3216" class="cls-2" d="M289.86,207.21c-6.26,12.39-10.39,27.62-10.75,46.3-1.52,79.26,3.45,67,.38,103.37-1.13,13.39-9.06,33-18.8,52.56-11.18,22.38-24.65,44.72-32.95,57.83C212,492,193.56,517.8,180.67,544c-7.37,14.86-13,29.85-15.26,44.89-1.53,10-1.71,23-1.37,35.22C155,632,150.29,645.28,141,655.42c-6,6.52-17.67,8.64-30.57,11.14-11.06,2.11-22.77,6.42-26.87,13a25,25,0,0,0-1.25,2.28C73,699.8,84.36,730.61,78.8,753.39c-2.36,9.69-6.38,18.8-6.45,27.16a26.88,26.88,0,0,0,4,14.07c3.28,5.71,10.49,9.78,20.75,13.32,9.57,3.31,22,6.22,36.44,9.62l5,1.17c6.5,1.54,13,3.09,19.52,4.4,4.26.88,6.73,1.31,8.85,1.69,9.21,1.64,12.71,2.29,37.28,11.88,5.92,2.31,12.49,4.78,19.44,6.9,13.73,4.26,29.25,7.35,43.58,4.76a45.34,45.34,0,0,0,20.21-8.83,76.25,76.25,0,0,0,16.68-18.3,53.71,53.71,0,0,0,3.15-5.57,42.45,42.45,0,0,0,2.15-5,34.36,34.36,0,0,0,1.41-4.74c5.78-2.88,20.08-7.23,54.13-7.56,51.32-.5,85.5,18,85.5,18l0-.38a55.88,55.88,0,0,0,1.62,6.85,36.71,36.71,0,0,0,4,8.88,40.8,40.8,0,0,0,6.81,8,52,52,0,0,0,10.9,7.62,62.17,62.17,0,0,0,13.09,5A69.3,69.3,0,0,0,501,854.57a75.59,75.59,0,0,0,14.71-.71,53.27,53.27,0,0,0,21-7.52c5.6-3.45,10.16-7.6,14.83-11.83l.14-.12h0c3.07-2.79,6.19-5.62,9.64-8.21,2.31-1.74,4.43-3.36,6.45-4.93,3-2.31,4.67-3.62,6.36-5,5.07-4,10.3-8.12,15.54-12,5.43-4,11.19-8.12,17.45-12.11,4.73-3,10.06-6.5,15.18-9.86,5.29-3.47,10.81-7.11,16-10.68,9.31-6.33,22.16-14.17,27-24.35a19.13,19.13,0,0,0,2.26-10.15c-.76-11.64-14.54-22.14-26.73-32.56-5.93-5.09-11.9-10.14-15-15.3-2.52-4.17-5.57-10.45-6.42-15-2.41-12.68-2.36-22.14-8.36-30.51-5.5-7.69-10.32-9.9-18.8-10.86-1.28-.14-2.47-.32-3.63-.51,5.51-20.29,6.74-33.18,5.74-50.19-2.31-38.84-27.74-83-56.51-127.82-17-28-34.84-54.36-46-72.85-6.11-10.27-9.61-17-12.81-26-3.67-10.31-5-35.33-5.37-75.67C475.25,218,456.11,189.51,433,171.7s-57.14-17.52-69.4-16.45h0c-10.28.9-53.51,11.27-73.69,52Z" transform="translate(-72.1 -154.59)"/><path id="path3218" class="cls-3" d="M135.83,666.91c-12.18,5.85-40.22,5.73-47,17.39-7.46,12.82-2.64,27-2.56,43.38,0,11.59-.17,24.48-5,38.2-4,11.3-5.35,15.3.38,25.24s30.62,14.75,64.27,22.79,22.95,2.09,60.66,16.81c23.35,9.14,56.32,20.34,77.68,3.67,7.87-6.16,20.79-20.1,21.57-33.68.45-7.76-.26-16-2.11-21.05-6.16-16.75-18.49-23.91-30.19-41.41-21.43-32.52-44.19-63.35-62.39-90.41-12.84-19.15-23.16-23.79-31.89-22.27-26.83,4.74-18.18,29.26-43.34,41.34Z" transform="translate(-72.1 -154.59)"/><path id="path3220" class="cls-3" d="M477.1,639.23c-11.82,8.35-9.26,33.37-10,46.55-1.06,20.17-1.2,42.66-1.89,51.61-1.15,14.8-12.37,48.25-11,64s2.49,25,12.3,34,27.13,15.79,48.49,12.7,29.45-16.36,43.3-26.74,28.06-22.7,46.34-34.43,47.7-31,51.94-36.17,7.1-9.71,4-16.55-13.71-17.42-25.36-27c-30.38-25.12-17.26-48.47-29.95-60.81-3.87-4.17-6.75-6.47-11.24-7.38-24.25-4.94-30.91,4.58-45.15,3.18-15.35-1.5-9.58,1.87-41.09-2.34-10.85-1.23-23.28-5.52-30.77-.66Z" transform="translate(-72.1 -154.59)"/><path id="path3224" class="cls-4" d="M398.58,262c-9.42-.11-18.52,7.2-21.51,17.05a46.32,46.32,0,0,0-2,18.32h0c2.77.83,5.64,1.93,8.94,3.2a17.84,17.84,0,0,1,.81-15.49c3.86-7.06,11.5-9.33,17.06-5.05s6.93,13.46,3.06,20.52a14.54,14.54,0,0,1-5.42,5.71c3.68,1.27,6.64,2.35,9,3.33,3.09-3.92,7.18-10.18,8.91-15.54,2.8-8.7.64-24.15-11.07-30.1a17.56,17.56,0,0,0-7.86-1.95Zm-89.67,2.41a14.4,14.4,0,0,0-4.75.87h0c-7.33,2.55-10.12,14.87-7.54,26,1.43,6.15,3.95,12,7.71,15.63.78-.6,1.57-1.19,2.36-1.73l1.84-1.28c-4.74-2.32-7.86-9.5-7-16.46.86-7.25,5.68-11.53,10.77-9.55s8.52,9.49,7.66,16.73a18.19,18.19,0,0,1-.52,2.7,40.93,40.93,0,0,1,4.14-1.89c.31-.13.61-.25.92-.35a36,36,0,0,0-.39-11.61c-2.22-10.93-7.17-19.08-15.16-19.1Zm115.27,97.44A72.39,72.39,0,0,0,410,370.5c-5.07,3.95-14.44,12.15-21.63,17.12a88.46,88.46,0,0,1-14.87,8.26c-7.27,3.16-14.37,5.07-19.72,5.21-19.17,1-28.29-3.74-37-12.85-3.66-3.82-6.44-8-11.06-13.11a52.86,52.86,0,0,0-7.78-7.33c-.08,2.51-8.13,56.09-19,79.78S268.68,463.21,261.4,488c-10.11,9.18-21.19,33.82-28.49,55-7.52,24.9-13.23,44.11-13.7,72a73.65,73.65,0,0,1-7.53-24.33c-3.75-30.82,4.41-67.57,28.76-94,1-1.12,1-1.58.55-1.55a3.18,3.18,0,0,0-1.56.87c-30.42,27.13-37.65,77.18-34.52,99.54,2.24,16,6.41,29.78,14.89,41a.28.28,0,0,1,0,.09l.43.48a59.43,59.43,0,0,0,7.59,8.09h0c5,5.48,11.17,11.47,23.8,21.07,23.25,17.66,39.54,27,42.75,38.48,4.26,15.29-5.3,25.41-17.23,31.62,8.72,8.73,36.56,26.6,87.32,24.37,44.7-2,72.74-18.89,96.67-48.08.15-6.72.89-18,1.22-30.09.32-11.59.38-23.19,2.16-32.19a31.54,31.54,0,0,1,1.93-5.89c2.92-7.2,10.78-12.11,18.29-12.46,4-.19,8.11-.47,12.07.35.74-5.73,1.31-11.24,1.71-16.6,5.12-1.49,14.13-2.89,25-3.25,16.77-.56,36.86,1,47,7.37a35.33,35.33,0,0,0-8-5.13c-11.86-5.68-28.12-7.59-44.68-8.11,4.42-11.75,9-28.61,8.51-41.22-1.27-33.09-17.72-58.59-41.17-76.32a4.71,4.71,0,0,0-1.37-.81c-.22,0-.09.24.72,1,27.15,25.7,36.23,55,34,83.38-.88,11.09-5.69,23.65-11.2,33.81-2.58,0-5.62.13-8.22.17,1.31-34.79-5.53-64-24.92-104.61-1.85-3.52-10.73-18.45-16-22.67-4.14-20.25-4.68-19.26-13-37.8-12.56-28.13-17.11-60.63-20.94-79.73Z" transform="translate(-72.1 -154.59)"/><path class="cls-5" d="M455.69,261.08,248.87,262a2.35,2.35,0,0,0-2.33,2.36l.1,23.43.05,12.6,0,3.22a14.05,14.05,0,0,0,14.12,14l63.27-.27c11.14,0,14.34-8.66,16.35-13.54,6.38-15.5,17.39-15.54,24.46-.11,2.23,4.87,6.65,13.45,17.78,13.4l61.52-.26a14,14,0,0,0,14-14.12v-3.22l-.05-12.6-.1-23.43A2.35,2.35,0,0,0,455.69,261.08Z" transform="translate(-72.1 -154.59)"/><path class="cls-6" d="M455.7,262.11,248.88,263a2.35,2.35,0,0,0-2.34,2.35l.1,23.44.06,12.59v3.23a14.07,14.07,0,0,0,14.12,14l63.28-.27c11.13-.05,14.34-8.66,16.35-13.55,6.38-15.49,17.38-15.54,24.46-.1,2.23,4.86,6.65,13.45,17.78,13.4l61.52-.26a14.07,14.07,0,0,0,14-14.12l0-3.23-.05-12.59-.1-23.44A2.34,2.34,0,0,0,455.7,262.11Z" transform="translate(-72.1 -154.59)"/><rect class="cls-7" x="260.62" y="270.18" width="63.67" height="40.86" rx="7.03" ry="7.03" transform="translate(-73.33 -153.35) rotate(-0.24)"/><rect class="cls-8" x="380.53" y="269.67" width="63.67" height="40.86" rx="7.03" ry="7.03" transform="translate(-73.33 -152.84) rotate(-0.24)"/><path class="cls-9" d="M317.34,309.93l-49.61.21a7,7,0,0,1-7.06-7v1a7,7,0,0,0,7.06,7l49.61-.21a7,7,0,0,0,7-7.06v-1A7,7,0,0,1,317.34,309.93Z" transform="translate(-72.1 -154.59)"/><path class="cls-9" d="M437.25,309.42l-49.61.21a7,7,0,0,1-7.06-7v1a7,7,0,0,0,7.06,7l49.6-.21a7,7,0,0,0,7-7.06v-1A7,7,0,0,1,437.25,309.42Z" transform="translate(-72.1 -154.59)"/><polygon class="cls-10" points="196.29 155.38 224.74 155.26 244.44 116.66 215.99 116.78 196.29 155.38"/><polygon class="cls-10" points="316.19 154.87 344.64 154.75 364.34 116.15 335.89 116.27 316.19 154.87"/><path id="path3222" class="cls-3" d="M296.24,360.9c.27.29.17.81.48,1.11,3.58,3.58,7.74,7.08,11.36,11.18,4.16,4.71,8,10,11.51,13.22,6.52,5.94,12.7,9.12,21.74,10.23,17.46,2.16,30.51-2.68,45.23-12.39,6.93-4.57,16.52-13,22.06-17.16,9.24-6.95,11.88-6.41,14.62-9.91s4.21-13.16,3.38-17.66c-.67-3.47-1.88-5.78-5.64-8.16-4.19-2.64-11.4-5.43-23.9-9.66l0,0c-6.4-2.33-13-4.69-18.65-6.85-12.69-4.93-21-8.66-32.49-7.74a54.4,54.4,0,0,0-15,3.31v0c-8.45,3.56-16.63,9-23.34,13.73-5.9,4.12-11.95,9.59-15.45,15.21-2.07,3.32-5.35,10.18-2.29,14.12,0,0,7.82,4,15.66,8.65,12.68,7.5,27.16,11.37,40.09,10.65A84.93,84.93,0,0,0,375.62,365a169.81,169.81,0,0,0,28.6-18.06c1.55-1.15,4.5-4,6.34-4.91,1.62-.77,6.86-.33,6.62,1.45-.19,1.4-6.34,3.88-8.56,5.53-10.93,8.12-23.11,16.08-31,19.73-8.18,3.76-21.94,8.12-31.24,8.66a58.53,58.53,0,0,1-23.1-2.93c-7.15-2.42-11.38-4.52-19-8.91-2.43-1.4-4.76-2.57-8-4.62Z" transform="translate(-72.1 -154.59)"/><path id="path3232" class="cls-2" d="M575.64,635.78a25.38,25.38,0,0,0,1.32-4.57c1.6-15.92-29.38-19.5-53.49-18.7-10.94.37-19.46,1.66-24.56,3.16-8.87,2.62-13.24,8.63-14.22,16.14-2,15.22,2.53,47.36,17.62,54.4,15.62,7.27,39.26-3.11,53.22-18.77,9.45-10.6,15.47-23,20.11-31.66Z" transform="translate(-72.1 -154.59)"/><path id="path3234" class="cls-2" d="M338.39,315.27c-1-1.52-5.28-.74-7.33,0s-3.6,3-2.76,4.48a2.05,2.05,0,0,0,2.07,1c1.09-.24,2.26-1.46,3.73-2.57s3.86-2.29,4.29-2.91Z" transform="translate(-72.1 -154.59)"/><path id="path3236" class="cls-2" d="M351.62,315.32c-.62-.64,6.93-2.19,9.9.14s2.81,4.17,1.91,5.14-9.74-4.45-11.81-5.28Z" transform="translate(-72.1 -154.59)"/></g></g></g><path class="cls-11" d="M607,534.17a14.17,14.17,0,0,0,7.85-1.36,13.21,13.21,0,0,0,6.07-18,14,14,0,0,0-16.3-6.77,15.91,15.91,0,0,0-1.78-6.32,17,17,0,0,0-22.53-7.14A16,16,0,0,0,573,516.41a16.29,16.29,0,0,0,5.28,5.93,15.34,15.34,0,0,0-1.82,17,16.49,16.49,0,0,0,21.83,6.92A15.75,15.75,0,0,0,607,534.17Z" transform="translate(-72.1 -154.59)"/><path class="cls-12" d="M598.26,546.24A15.75,15.75,0,0,0,607,534.17a14.17,14.17,0,0,0,7.85-1.36,13.41,13.41,0,0,0,7.38-9.77,18.58,18.58,0,0,1-5.87,4.52,19.18,19.18,0,0,1-15.59.57A18.1,18.1,0,0,1,591.11,540a19.08,19.08,0,0,1-13.47,1.29A16.57,16.57,0,0,0,598.26,546.24Z" transform="translate(-72.1 -154.59)"/><path class="cls-11" d="M560.21,521a16.13,16.13,0,0,0,3.89-.37,15,15,0,0,0,11.71-17.9A15.42,15.42,0,0,0,559,491.15a11.87,11.87,0,0,0-.25-3.83,12.72,12.72,0,0,0-15.21-9.27,12.31,12.31,0,0,0-9.63,14.66,9.29,9.29,0,0,0-6,10.78,9.6,9.6,0,0,0,10.3,7.22,12,12,0,0,0-2.93,10.9,12.72,12.72,0,0,0,15.21,9.28A12.5,12.5,0,0,0,560.21,521Zm-15-14.15-.08,0,.08-.11Z" transform="translate(-72.1 -154.59)"/><path class="cls-12" d="M550.47,530.89a12.5,12.5,0,0,0,9.74-9.91,16.13,16.13,0,0,0,3.89-.37,15,15,0,0,0,11.71-17.9,14.66,14.66,0,0,0-2.1-4.83c.08.27.16.55.23.84A13.65,13.65,0,0,1,563.27,515a14.46,14.46,0,0,1-8.67-.77,12.61,12.61,0,0,1-9.89,14.86,14,14,0,0,1-2.37.3l-.75.29A13.06,13.06,0,0,0,550.47,530.89Z" transform="translate(-72.1 -154.59)"/><path class="cls-13" d="M682.47,572.67A12.91,12.91,0,0,0,657,570.09a12.89,12.89,0,0,0-25.6,1.72c0,.13,0,.26,0,.39h0c0-.24,0-.37,0-.39,0-6.78-5.66-12.1-12.65-12.11A12.48,12.48,0,0,0,606.07,572c0,.07,0,.13,0,.2h0c0-.13,0-.26,0-.39a12.87,12.87,0,0,0-25.73,0c0,.13,0,.26,0,.39h0v-.2a12.67,12.67,0,0,0-25.33,0v.2h0c0-.13,0-.26,0-.39a12.88,12.88,0,0,0-25.74,0c0,.13,0,.26,0,.39h0a1.27,1.27,0,0,0,0-.2,12.67,12.67,0,0,0-25.33,0V572h0c0-.13,0-.26,0-.39a12.88,12.88,0,0,0-25.74,0c0,.13,0,.26,0,.39h0v-.19a12.67,12.67,0,0,0-25.33,0c0,.9,13.87,213,16.88,259.07h0l.44,6.59c.1,1.43.15,2.19.15,2.19l21.71,0v-.07l21.71,0v.07l21.31,0v-.08l21.72,0v.07l21.71,0v-.07l21.72,0v.08l21.71,0v-.07l21.72,0v.07l21.32,0v-.08H665v-.12h.12l10.31-159.6v0C679.18,623.34,682.47,573.14,682.47,572.67Z" transform="translate(-72.1 -154.59)"/><polygon class="cls-14" points="593.86 685.09 577.34 699.88 594.67 432.86 610.37 419.63 593.86 685.09"/><path class="cls-11" d="M613.77,546.88a15.32,15.32,0,0,0-3.94-8.14,16.43,16.43,0,0,0-22.71-1.21,15.26,15.26,0,0,0-3,19.8,19.63,19.63,0,0,0-6.78,3.84,18.51,18.51,0,0,0-1.51,26.7,19.93,19.93,0,0,0,27.54,1.46,18.79,18.79,0,0,0,5.28-7.53,19.38,19.38,0,0,0,20.24-3.12,18,18,0,0,0,1.46-25.88A19.21,19.21,0,0,0,613.77,546.88Z" transform="translate(-72.1 -154.59)"/><path class="cls-12" d="M630.4,552.8a19.21,19.21,0,0,0-16.63-5.92,15.32,15.32,0,0,0-3.94-8.14,16.29,16.29,0,0,0-13.55-5.11,21.58,21.58,0,0,1,7,5,20.58,20.58,0,0,1,5.35,16.81,22,22,0,0,1,16.66,7,20.66,20.66,0,0,1,5.54,14.3A17.92,17.92,0,0,0,630.4,552.8Z" transform="translate(-72.1 -154.59)"/><path class="cls-11" d="M546.92,604.59a16.54,16.54,0,0,0,9.27-.13,15.51,15.51,0,0,0,10.48-19.58,16.12,16.12,0,0,0-17.41-10.75,18.26,18.26,0,0,0-.81-7.57c-3.25-10-14.21-15.47-24.48-12.32a18.65,18.65,0,0,0-7.8,31.5,18,18,0,0,0-5.39,19.16c3.15,9.65,13.77,15,23.72,11.94A18.6,18.6,0,0,0,546.92,604.59Z" transform="translate(-72.1 -154.59)"/><path class="cls-12" d="M534.5,616.84a18.6,18.6,0,0,0,12.42-12.25,16.54,16.54,0,0,0,9.27-.13,15.85,15.85,0,0,0,10.38-9.87A22,22,0,0,1,559,598.7a22.24,22.24,0,0,1-18-2.19,21.44,21.44,0,0,1-13.43,11.84,22.24,22.24,0,0,1-15.72-1A19.13,19.13,0,0,0,534.5,616.84Z" transform="translate(-72.1 -154.59)"/><path class="cls-11" d="M491.66,554.5a19.1,19.1,0,0,0,.65-4.93c0-10.88-9.06-19.7-20.27-19.72a20.09,20.09,0,0,0-20.22,17.52,17.38,17.38,0,0,0-5.14-.8,16.19,16.19,0,1,0-.13,32.36,12.73,12.73,0,0,0,25.1-.12,16.83,16.83,0,0,0,13.57,6.81,16.44,16.44,0,0,0,16.71-16.16A16.19,16.19,0,0,0,491.66,554.5Zm-23.09,14.44v.11l-.12-.13Z" transform="translate(-72.1 -154.59)"/><path class="cls-12" d="M501.93,569.46a16.19,16.19,0,0,0-10.27-15,19.1,19.1,0,0,0,.65-4.93c0-10.88-9.06-19.7-20.27-19.72a20.52,20.52,0,0,0-7,1.2c.39,0,.78,0,1.18,0,10.21,0,18.48,8.06,18.46,18a17.42,17.42,0,0,1-3.55,10.53,16.82,16.82,0,0,1,16.78,16.59,15.86,15.86,0,0,1-.3,3c.06.34.12.68.17,1A15.9,15.9,0,0,0,501.93,569.46Z" transform="translate(-72.1 -154.59)"/><path class="cls-11" d="M577.72,550.74a19.17,19.17,0,0,0,.65-4.94c0-10.87-9.06-19.7-20.27-19.72a20.11,20.11,0,0,0-20.22,17.52,17.11,17.11,0,0,0-5.14-.79,16.18,16.18,0,1,0-.13,32.35,12.72,12.72,0,0,0,25.09-.11,16.82,16.82,0,0,0,13.57,6.8A16.45,16.45,0,0,0,588,565.7,16.18,16.18,0,0,0,577.72,550.74Zm-23.09,14.43v.11l-.12-.13Z" transform="translate(-72.1 -154.59)"/><path class="cls-12" d="M588,565.7a16.18,16.18,0,0,0-10.27-15,19.17,19.17,0,0,0,.65-4.94c0-10.87-9.06-19.7-20.27-19.72a21,21,0,0,0-7,1.2c.39,0,.78,0,1.17,0,10.22,0,18.49,8.06,18.47,18a17.46,17.46,0,0,1-3.55,10.53,16.48,16.48,0,0,1,16.48,19.61c.06.34.12.68.16,1A15.81,15.81,0,0,0,588,565.7Z" transform="translate(-72.1 -154.59)"/><path class="cls-11" d="M529.17,517.81a16.66,16.66,0,0,0,1.71-4.12,17.55,17.55,0,0,0-12.94-21.49,18.29,18.29,0,0,0-21.56,10.74,15.13,15.13,0,0,0-22.47,8.5,14.42,14.42,0,0,0,10.58,17.64,11,11,0,0,0,8.37,11.85,11.41,11.41,0,0,0,13.36-6.47,14.73,14.73,0,0,0,10.15,8.85A15,15,0,0,0,534.58,533,14.23,14.23,0,0,0,529.17,517.81Zm-23.32,7.44,0,.09-.07-.14Z" transform="translate(-72.1 -154.59)"/><path class="cls-12" d="M534.58,533a14.23,14.23,0,0,0-5.41-15.18,16.66,16.66,0,0,0,1.71-4.12,17.55,17.55,0,0,0-12.94-21.49,18.77,18.77,0,0,0-6.34-.49c.34.06.68.14,1,.22a15.83,15.83,0,0,1,6.28,27.9,14.75,14.75,0,0,1,10.65,18,13.94,13.94,0,0,1-1,2.55c0,.3-.05.61-.09.91A14.43,14.43,0,0,0,534.58,533Z" transform="translate(-72.1 -154.59)"/><path class="cls-11" d="M662.63,554.87a13.44,13.44,0,0,0-6.5-8.14,14.11,14.11,0,0,0-18.93,5,13.08,13.08,0,0,0,0,13.28,19.06,19.06,0,0,0-8,7.42,18.6,18.6,0,0,0,7.27,25.79,19.84,19.84,0,0,0,26.61-7.05,18.62,18.62,0,0,0,2.23-5.91A16.92,16.92,0,0,0,684,577.63a15.92,15.92,0,0,0-6.22-22.07A17.16,17.16,0,0,0,662.63,554.87Z" transform="translate(-72.1 -154.59)"/><path class="cls-12" d="M662.63,554.87a13.44,13.44,0,0,0-6.5-8.14,14.21,14.21,0,0,0-14.87.68,14.83,14.83,0,0,1,10.6,1.44,13.94,13.94,0,0,1,7.2,13.9,14.87,14.87,0,0,1,14.9-.32,13.78,13.78,0,0,1,4,21.15,16.4,16.4,0,0,0,6.07-6,15.92,15.92,0,0,0-6.22-22.07A17.16,17.16,0,0,0,662.63,554.87Z" transform="translate(-72.1 -154.59)"/><path class="cls-11" d="M520,591.68a16.54,16.54,0,0,0,9.27-.13A15.5,15.5,0,0,0,539.75,572a16.12,16.12,0,0,0-17.41-10.76,18.28,18.28,0,0,0-.81-7.57c-3.25-10-14.21-15.47-24.48-12.32a18.65,18.65,0,0,0-7.8,31.5A18,18,0,0,0,483.86,592a19,19,0,0,0,23.72,11.93A18.58,18.58,0,0,0,520,591.68Z" transform="translate(-72.1 -154.59)"/><path class="cls-12" d="M507.58,603.93A18.58,18.58,0,0,0,520,591.68a16.54,16.54,0,0,0,9.27-.13,15.85,15.85,0,0,0,10.38-9.87A21.84,21.84,0,0,1,532,585.8a22.28,22.28,0,0,1-18-2.19,21.46,21.46,0,0,1-13.43,11.84,22.29,22.29,0,0,1-15.72-1A19.11,19.11,0,0,0,507.58,603.93Z" transform="translate(-72.1 -154.59)"/><g class="cls-15"><path class="cls-16" d="M669.55,583.15a12.91,12.91,0,0,0-25.46-2.57,12.9,12.9,0,0,0-25.61,1.71c0,.13,0,.26,0,.39h0c0-.23,0-.37,0-.39,0-6.78-5.65-12.09-12.64-12.1a12.48,12.48,0,0,0-12.69,12.26,1.21,1.21,0,0,0,0,.19h0c0-.13,0-.26,0-.39a12.87,12.87,0,0,0-25.73,0c0,.13,0,.26,0,.39h0c0-.11,0-.18,0-.19a12.68,12.68,0,0,0-25.34,0c0,.07,0,.13,0,.2h0c0-.13,0-.26,0-.39a12.87,12.87,0,0,0-25.73,0c0,.13,0,.26,0,.39h0a1.34,1.34,0,0,0,0-.2,12.67,12.67,0,0,0-25.33,0v.2h0c0-.13,0-.26,0-.39a12.88,12.88,0,0,0-25.74,0c0,.13,0,.26,0,.39h0v-.2a12.67,12.67,0,0,0-25.33,0c0,.91,13.86,213,16.88,259.08h0l.45,6.58c.09,1.43.14,2.19.14,2.19l21.72,0V850l21.72,0v.07l21.31,0v-.07l21.72,0v.07l21.71,0v-.07l21.72,0v.07l21.72,0v-.07l21.71,0v.07l21.31,0v-.07h.07v-.12h.11l10.32-159.6v0C666.26,633.83,669.55,583.62,669.55,583.15Z" transform="translate(-72.1 -154.59)"/></g><path class="cls-17" d="M641.42,587c0-.13,0-.26,0-.39a12.87,12.87,0,0,0-25.73,0c0,.13,0,.26,0,.39l-25.35,0c0-.13,0-.26,0-.39a12.88,12.88,0,0,0-25.74,0c0,.13,0,.26,0,.39l-25.35,0c0-.13,0-.26,0-.39a12.88,12.88,0,0,0-25.74,0c0,.13,0,.26,0,.39l-25.35,0c0-.13,0-.26,0-.39a12.87,12.87,0,0,0-25.73,0c0,.13,0,.26,0,.39l-25,0,17.55,267.58,194.27.3,17.14-267.52Z" transform="translate(-72.1 -154.59)"/><path class="cls-18" d="M462.49,587c0-.13,0-.26,0-.39a12.68,12.68,0,0,0-25.34,0c0,1,17.46,267.85,17.46,267.85l21.71,0Z" transform="translate(-72.1 -154.59)"/><path class="cls-18" d="M513.55,587c0-.13,0-.25,0-.39a12.67,12.67,0,0,0-25.33,0c0,.88,9.82,267.83,9.82,267.83l21.31,0Z" transform="translate(-72.1 -154.59)"/><path class="cls-18" d="M552,574.41a12.48,12.48,0,0,0-12.69,12.26c0,.14,0,.26,0,.39l1.76,267.44,21.72,0s1.84-267.06,1.84-267.82A12.48,12.48,0,0,0,552,574.41Z" transform="translate(-72.1 -154.59)"/><path class="cls-18" d="M603.05,574.49a12.48,12.48,0,0,0-12.68,12.26c0,.13,0,.26,0,.39L584.5,854.57l21.71,0s9.49-267.13,9.49-268C615.71,579.82,610.05,574.5,603.05,574.49Z" transform="translate(-72.1 -154.59)"/><path class="cls-18" d="M666.77,587.46a12.88,12.88,0,0,0-25.73-.24L627.93,854.63l21.31,0S666.76,588.54,666.77,587.46Z" transform="translate(-72.1 -154.59)"/><g class="cls-15"><ellipse class="cls-16" cx="552.16" cy="718.07" rx="55.94" ry="80.23" transform="translate(-238.8 1114.6) rotate(-89.92)"/></g><path class="cls-19" d="M631.92,714.69c0,30.89-36,55.88-80.32,55.81s-80.19-25.17-80.14-56.06,36-55.89,80.32-55.82S632,683.79,631.92,714.69Z" transform="translate(-72.1 -154.59)"/><g class="cls-15"><path class="cls-16" d="M659.75,694.87S614.23,822.19,454,845.59l.58,8.58,194.83.3Z" transform="translate(-72.1 -154.59)"/></g><path class="cls-11" d="M633.5,549.27a13.28,13.28,0,0,0,3.86,6.79,14.18,14.18,0,0,0,19.61-.22,13.14,13.14,0,0,0,1.38-17.2A16.85,16.85,0,0,0,664,535a16,16,0,0,0-.28-23.05,17.2,17.2,0,0,0-23.78.27,16.27,16.27,0,0,0-4.1,6.77,16.66,16.66,0,0,0-17.22,3.81,15.44,15.44,0,0,0,.27,22.33A16.59,16.59,0,0,0,633.5,549.27Z" transform="translate(-72.1 -154.59)"/><path class="cls-12" d="M618.85,545.09a16.59,16.59,0,0,0,14.65,4.18,13.28,13.28,0,0,0,3.86,6.79,14.12,14.12,0,0,0,12,3.64,18.78,18.78,0,0,1-6.32-3.94,17.79,17.79,0,0,1-5.59-14.17,19,19,0,0,1-14.74-5.09,17.8,17.8,0,0,1-5.61-12A15.43,15.43,0,0,0,618.85,545.09Z" transform="translate(-72.1 -154.59)"/><path class="cls-11" d="M610.25,488a11.71,11.71,0,0,0,3.83,5.7,12.45,12.45,0,0,0,17.16-1.42,11.53,11.53,0,0,0,0-15.15,14.45,14.45,0,0,0,4.67-3.57,14,14,0,0,0-1.77-20.16,15.07,15.07,0,0,0-20.8,1.72,14,14,0,0,0-3.14,6.19,14.58,14.58,0,0,0-14.83,4.4,13.59,13.59,0,0,0,1.72,19.55A14.64,14.64,0,0,0,610.25,488Z" transform="translate(-72.1 -154.59)"/><path class="cls-12" d="M597.14,485.29A14.64,14.64,0,0,0,610.25,488a11.71,11.71,0,0,0,3.83,5.7,12.44,12.44,0,0,0,10.71,2.44,16.56,16.56,0,0,1-5.8-3.06,15.68,15.68,0,0,1-5.83-12.05,16.78,16.78,0,0,1-13.25-3.54,15.76,15.76,0,0,1-5.71-10.15A13.58,13.58,0,0,0,597.14,485.29Z" transform="translate(-72.1 -154.59)"/><path class="cls-11" d="M482,483.82a16.16,16.16,0,0,0,3.89-.36,15,15,0,0,0,11.71-17.9A15.42,15.42,0,0,0,480.74,454a11.87,11.87,0,0,0-.26-3.83,12.71,12.71,0,0,0-15.2-9.28,12.32,12.32,0,0,0-9.63,14.66,9.29,9.29,0,0,0-6,10.78,9.61,9.61,0,0,0,10.3,7.23,12,12,0,0,0-2.93,10.9,12.71,12.71,0,0,0,15.2,9.27A12.53,12.53,0,0,0,482,483.82Zm-15-14.14h-.08a1,1,0,0,0,.08-.11Z" transform="translate(-72.1 -154.59)"/><path class="cls-12" d="M472.24,493.73a12.53,12.53,0,0,0,9.75-9.91,16.16,16.16,0,0,0,3.89-.36,15,15,0,0,0,11.71-17.9,14.62,14.62,0,0,0-2.1-4.84c.08.28.16.56.22.84a13.66,13.66,0,0,1-10.66,16.31,14.46,14.46,0,0,1-8.67-.77,12.63,12.63,0,0,1-9.9,14.86,13.73,13.73,0,0,1-2.36.3l-.76.28A13,13,0,0,0,472.24,493.73Z" transform="translate(-72.1 -154.59)"/><path class="cls-18" d="M505.92,707.62c-1.83.4-2.74.6-4.57,1l-.83-3.5c5.48-1.31,8.25-1.88,13.79-2.82l.6,3.55c-1.84.31-2.76.48-4.6.84l4.1,21.2c-1.58.31-2.37.47-3.94.81Z" transform="translate(-72.1 -154.59)"/><path class="cls-18" d="M521.63,725.39a6.66,6.66,0,0,1-2.27-4.4l-3.05-19c1.79-.29,2.69-.42,4.49-.67,1.08,7.73,1.61,11.59,2.69,19.32a2.67,2.67,0,0,0,.79,1.78,2.37,2.37,0,0,0,3.06-.39,2.69,2.69,0,0,0,.32-1.92c-.91-7.75-1.36-11.63-2.27-19.38,1.74-.2,2.61-.3,4.35-.47l1.85,19.14a6.69,6.69,0,0,1-1.09,4.83,7.11,7.11,0,0,1-8.87,1.14Z" transform="translate(-72.1 -154.59)"/><path class="cls-18" d="M537.66,712c-2.18-4.8-3.33-7.18-5.75-11.91,1.91-.17,2.87-.24,4.77-.36,1.43,3.17,2.12,4.76,3.45,7.95h.08c1-3.31,1.59-5,2.73-8.26,1.71-.06,2.57-.08,4.29-.11-1.93,5-2.83,7.45-4.52,12.44,2.16,5.07,3.19,7.63,5.1,12.76-1.68,0-2.53,0-4.21.1-1.29-3.47-2-5.2-3.36-8.64h-.08c-1.06,3.57-1.57,5.36-2.52,8.95-1.51.1-2.27.16-3.78.29C535.26,719.91,536,717.27,537.66,712Z" transform="translate(-72.1 -154.59)"/><path class="cls-18" d="M549.62,699.29c4.79,0,7.19,0,12,.29l-.19,3.6c-2.93-.15-4.39-.21-7.33-.26-.05,2.81-.07,4.21-.12,7,2.23,0,3.34.08,5.56.18l-.16,3.59c-2.18-.1-3.28-.13-5.46-.17l-.2,11c-1.6,0-2.4,0-4,0C549.67,714.41,549.65,709.37,549.62,699.29Z" transform="translate(-72.1 -154.59)"/><path class="cls-18" d="M563.78,699.71c1.81.11,2.72.18,4.53.33-.73,8.61-1.09,12.92-1.81,21.53,2.68.22,4,.35,6.68.67l-.42,3.58c-4.21-.5-6.32-.69-10.55-1C562.84,714.8,563.15,709.77,563.78,699.71Z" transform="translate(-72.1 -154.59)"/><path class="cls-18" d="M577.91,701.06c1.8.24,2.7.36,4.49.63l-3.75,24.92c-1.59-.24-2.38-.35-4-.55C576,716.06,576.61,711.06,577.91,701.06Z" transform="translate(-72.1 -154.59)"/><path class="cls-18" d="M587.45,715c-1-5.19-1.49-7.79-2.68-13,1.9.31,2.84.47,4.73.82.61,3.43.89,5.14,1.41,8.56l.08,0c1.83-3,2.76-4.42,4.68-7.34,1.68.36,2.53.55,4.2,1-3.08,4.33-4.57,6.52-7.45,10.95.87,5.45,1.24,8.18,1.86,13.63-1.65-.4-2.48-.58-4.14-.94-.41-3.68-.64-5.52-1.15-9.21h-.08c-1.91,3.2-2.84,4.81-4.65,8-1.49-.27-2.24-.39-3.74-.64C583.17,722.11,584.56,719.73,587.45,715Z" transform="translate(-72.1 -154.59)"/><path class="cls-20" d="M779.11,459.36q-27,3.88-53.85,8.09-3.39-21.45-6.77-42.9Q798.94,412,879.8,402.68l4.89,43.16q-27,3.11-54,6.52,16.59,129.24,33.17,258.47-24,3.07-47.92,6.5Q797.52,588.35,779.11,459.36Z" transform="translate(-72.1 -154.59)"/><path class="cls-20" d="M952.22,685.16C936.44,671,930.85,651,927.76,630.73L903.1,400.12q26.16-2.76,52.36-5.23,10.86,117.2,21.71,234.4c1,10.38,3.82,17.67,8.51,21.89s11,6,19,5.31,13.89-3.48,17.81-8.45,5.49-12.63,4.68-23q-9.18-117.35-18.34-234.68,25.26-2,50.54-3.61l14.91,231.45c.41,20.08-1.46,41.74-14.83,57.8-13.18,15.84-33.06,22.24-52,23.86C989,701.42,967.34,698.7,952.22,685.16Z" transform="translate(-72.1 -154.59)"/><path class="cls-20" d="M1148.63,530.72q-31-73.2-64-145.53,27.67-1.54,55.37-2.78,19.66,48.24,38.58,96.77l.93,0q16.14-49.69,33.07-99.12,24.84-.57,49.68-.82-28,74.4-54,149.5,30.91,76.83,59.63,154.48-25.44.22-50.88.84-18.9-52.62-38.7-104.89l-.9,0q-16.64,53.52-32.31,107.33-22.78,1.07-45.57,2.36Q1122.95,609.43,1148.63,530.72Z" transform="translate(-72.1 -154.59)"/><path class="cls-20" d="M1290,379.05q69.52,0,139,2.28l-1.53,43.4q-42.71-1.43-85.44-2-.49,42.34-1,84.68,32.74.45,65.49,1.38-.66,21.7-1.31,43.41-32.36-.91-64.7-1.36-.78,66.23-1.57,132.46-24.12-.3-48.25-.23Z" transform="translate(-72.1 -154.59)"/><path class="cls-20" d="M1454.28,382.31q26.27,1.14,52.5,2.57-7.3,130.1-14.6,260.18,40.17,2.33,80.27,5.44L1569,693.8q-63.68-4.95-127.46-7.74Q1447.9,534.18,1454.28,382.31Z" transform="translate(-72.1 -154.59)"/><path class="cls-20" d="M1618.35,392.83q26.2,2.3,52.38,4.9Q1655.51,549,1640.29,700.22q-24-2.43-48.1-4.5Z" transform="translate(-72.1 -154.59)"/><path class="cls-20" d="M1737.56,554.69q-18.58-77.31-39.24-154.08,27.59,3,55.14,6.38,11.49,50.82,22.2,101.8l.92.12q24.14-46.35,49-92.31,24.66,3.54,49.27,7.4-40,68.75-78.07,138.54,17.91,80.87,33.54,162.21-25.2-4-50.46-7.57-10-55-21-109.85l-.9-.11q-25.24,50.06-49.59,100.54-22.7-2.7-45.4-5.18Q1699.23,628.09,1737.56,554.69Z" transform="translate(-72.1 -154.59)"/></g></g></svg>